<?xml version="1.0" encoding="utf-8"?>
<!-- Generator: Adobe Illustrator 22.1.0, SVG Export Plug-In . SVG Version: 6.00 Build 0)  -->
<svg version="1.1" id="Layer_1" xmlns="http://www.w3.org/2000/svg" xmlns:xlink="http://www.w3.org/1999/xlink" x="0px" y="0px"
	 viewBox="0 0 100 100" style="enable-background:new 0 0 100 100;" xml:space="preserve">
<style type="text/css">
	.st0{fill:current;}
</style>
<path class="st0" d="M50.2,0C22.3-0.1-0.2,22.5,0,50.4c0.2,26.8,21.8,48.9,48.7,49.5c27.8,0.8,50.9-21.4,51.3-49.2
	C100.4,22.9,78,0.1,50.2,0z M50.4,95.3c-25,0.2-46.7-21.8-45.8-46.8C5.4,24.4,26.8,4.2,50.8,4.7c24,0.4,44.7,21.4,44.6,45.5
	S74.5,95.1,50.4,95.3z M79.8,53.1l-46.5,0.1L47,66.4l-3.9,4L22.7,50.3L43,29.7l4.1,4L33.1,47.4l46.7-0.2
	C79.8,47.2,79.8,53.1,79.8,53.1z"/>
</svg>
