<?xml version="1.0" encoding="utf-8"?>
<!-- Generator: Adobe Illustrator 22.1.0, SVG Export Plug-In . SVG Version: 6.00 Build 0)  -->
<svg version="1.1" id="Layer_1" xmlns="http://www.w3.org/2000/svg" xmlns:xlink="http://www.w3.org/1999/xlink" x="0px" y="0px"
	 viewBox="0 0 100 100" style="enable-background:new 0 0 100 100;" xml:space="preserve">
<style type="text/css">
	.st0{fill:#FFFFFF;}
</style>
<path class="st0" d="M96.4,26.3c-1.4,0.1-2.7,0-4.1,0c-21.2,0-42.5-0.1-63.7,0.2c-4.4,0.1-6.5-1.4-7.5-5.5c-0.8-3.2-1.8-6.3-3.2-9.2
	c-0.7-1.5-2.4-3.3-3.9-3.5c-3.6-0.5-7.3-0.4-11,0c-1,0-3,0-3,2.5s1.9,2.4,3,2.7c2.2,0.5,4.6,0.3,6.9,0.2s3.5,0.9,4.2,3
	c6.2,18.7,12.6,37.4,18.7,56.2c0.5,1.5,0,3.7-0.8,5.1c-2,3.6-2.3,7.5-0.1,10.3c2.3,2.9,5.2,4.3,9,3.4c4-1,6.4-3.7,6.5-8.3
	c0.1-3.1,1.6-3.6,4.1-3.5c4.8,0.1,9.5,0.1,14.3,0c2.7-0.1,4.1,0.5,4.3,3.7c0.4,6.6,6.8,10.2,12.3,7.5c3.3-1.6,5.5-5.8,4.8-9.1
	c-0.8-4.1-4.2-7.1-8.7-7.2c-10.9-0.1-21.8-0.1-32.7-0.1h-4.1c-3.6,0-3.6-3-3.9-5.3c-0.4-2.9,2.2-2.2,3.8-2.2c6.9-0.1,13.9,0,20.8,0
	c7.1,0,14.2,0.2,21.2-0.1c1.6-0.1,4.1-1.4,4.6-2.8c4-11.1,7.6-22.4,11.3-33.7C100.6,27.7,99.7,26.1,96.4,26.3L96.4,26.3z M72.1,49.7
	h-9v9c0,1.6-1.3,2.9-2.9,2.9s-2.9-1.3-2.9-2.9v-9h-9c-1.6,0-2.9-1.3-2.9-2.9s1.3-2.9,2.9-2.9h9v-9c0-1.6,1.3-2.9,2.9-2.9
	s2.9,1.3,2.9,2.9v9h9c1.6,0,2.9,1.3,2.9,2.9S73.7,49.7,72.1,49.7z"/>
</svg>
