<svg xmlns="http://www.w3.org/2000/svg" xml:space="preserve" style="enable-background:new 0 0 100 100" viewBox="0 0 100 100"><path d="M92 33.5c2.7-2.1 4.2-5.4 4.2-9.7 0-10.2-10.6-22.5-11.1-23-.9-1-2.7-1-3.6 0-.3.3-5.1 5.8-8.2 12.5C66.5 9.3 58.5 7 50 7 24.3 7 3.5 27.8 3.5 53.5S24.3 100 50 100s46.5-20.8 46.5-46.5c0-7.2-1.6-13.9-4.5-20zM83.4 6.2c3.2 4.3 8.1 11.8 8.1 17.6 0 1.9 0 7.5-8.1 7.5s-8.1-5.6-8.1-7.5c0-6.2 5.2-13.9 8.1-17.6zM50 95C27.1 95 8.5 76.4 8.5 53.5S27.1 12 50 12c7.8 0 15.2 2.2 21.4 6-.6 1.9-1 3.9-1 5.8 0 7.7 4.8 12.3 12.9 12.3 1.5 0 2.8-.2 4.1-.5 2.6 5.4 4.1 11.5 4.1 17.9C91.5 76.4 72.9 95 50 95z"/><path d="M36.9 82c-.6 0-1.1-.2-1.6-.6-1-.9-1.1-2.4-.3-3.4 3.9-4.5 9.2-7 14.9-7.1 5.8 0 11.5 2.5 15.6 7 .9 1 .8 2.5-.2 3.4-1 .9-2.5.8-3.4-.2-3.1-3.5-7.4-5.4-11.8-5.4h-.2c-4.4.1-8.4 2-11.3 5.4-.3.7-1 .9-1.7.9zM31.8 62.2c-5.3 0-8.5-3.6-8.5-9.5 0-1.3 1.1-2.4 2.4-2.4s2.4 1.1 2.4 2.4c0 4.7 2.4 4.7 3.8 4.7 1.8 0 3.4-.4 3.4-4.7 0-1.3 1.1-2.4 2.4-2.4s2.4 1.1 2.4 2.4c-.1 8.3-5.2 9.5-8.3 9.5zM69.5 62.2c-5.3 0-8.5-3.6-8.5-9.5 0-1.3 1.1-2.4 2.4-2.4 1.3 0 2.4 1.1 2.4 2.4 0 4.7 2.4 4.7 3.8 4.7 1.8 0 3.4-.4 3.4-4.7 0-1.3 1.1-2.4 2.4-2.4s2.4 1.1 2.4 2.4c-.1 8.3-5.2 9.5-8.3 9.5zM79.1 45.7c-.2 0-.4 0-.6-.1-7.8-2-14.3-5.3-20.5-10.4-1-.8-1.2-2.3-.3-3.4.8-1 2.3-1.2 3.4-.3 5.7 4.7 11.5 7.6 18.6 9.5 1.3.3 2 1.6 1.7 2.9-.3 1.1-1.2 1.8-2.3 1.8zM20.7 45.7c.2 0 .4 0 .6-.1 7.8-2 14.3-5.3 20.5-10.4 1-.8 1.2-2.3.3-3.4-.8-1-2.3-1.2-3.4-.3-5.7 4.7-11.5 7.6-18.6 9.5-1.3.3-2 1.6-1.7 2.9.3 1.1 1.3 1.8 2.3 1.8z"/></svg>