<svg xmlns="http://www.w3.org/2000/svg" xml:space="preserve" style="enable-background:new 0 0 100 100" viewBox="0 0 100 100"><path d="M98.6 78.9c-1.7-3.1-25.9-45.7-38.9-68.5-2.1-3.7-5.3-5.8-9.6-5.8s-7.5 2-9.6 5.7c-13 22.8-25.9 45.6-38.9 68.4C-.3 82-.8 85.4.8 88.8c1.9 4.3 5.4 6.6 10.1 6.6h78.2c5.4 0 9.1-3.3 10.1-6.5 1.1-3.2 1.1-6.9-.6-10zm-47.8 2.5c-3.4 0-6-2.5-6-5.9 0-3.4 2.6-6.1 5.9-6.1 3.4 0 6.1 2.7 6.1 6.1 0 3.4-2.6 5.9-6 5.9zm6.1-46.8c-.4 5.9-.9 11.7-1.4 17.6-.2 2.4-.4 4.8-.7 7.3-.1.7-.3 1.5-.6 2.2-.6 1.7-1.7 2.6-3.4 2.6-1.8 0-2.9-.8-3.5-2.5-1-2.7-1-5.6-1.2-8.5-.4-6-.8-12.1-1.2-18.1h-.1c.1-1.5 0-3 .3-4.5.7-3.4 3.8-5.4 7.1-4.8 1.7.3 2.9 1.3 3.6 2.9.8 1.8 1.2 3.8 1.1 5.8z" style="fill:#fc0"/></svg>