<svg xmlns="http://www.w3.org/2000/svg" xml:space="preserve" style="enable-background:new 0 0 283.5 283.5" viewBox="0 0 283.5 283.5"><style>.st1{fill:#fff}.st2{fill:#c39d6f}</style><path id="BG" d="M141.7 283.5C63.5 283.5 0 220 0 141.7 0 63.5 63.5 0 141.7 0 220 0 283.5 63.5 283.5 141.7c0 78.3-63.5 141.8-141.8 141.8z" style="fill:#2f3b57"/><g id="Artwork"><path d="M113.8 171h60.5v3.8h-60.5zm-27.4 0h14.7v3.8H86.4zm96.1 0h19.2v3.8h-19.2z" class="st1"/><path d="M207.1 168.6v8.6c4.6 0 19.6 1.1 22 0s2.5-7.7 0-8.6c-2.4-1-18.6 0-22 0z" class="st2"/><path d="M177.1 128.7h20.2v3.8h-20.2zm-59.9 0h49.4v3.8h-49.4zm-35.1 0h25.5v3.8H82.1z" class="st1"/><path d="M101.1 125.9h15.5V181h-15.5zm65.4-.8h16.7v56.6h-16.7z" class="st1"/><path d="M76.6 126.3v8.6c-4.6 0-19.6 1.1-22 0s-2.5-7.7 0-8.6c2.5-1 18.6 0 22 0zm22.3-6.9v87.8l13.8 23.1h6.2V119.4h-20zm6.3 56c-1.4 0-2.4-1.1-2.4-2.4 0-1.4 1.1-2.4 2.4-2.4 1.4 0 2.4 1.1 2.4 2.4 0 1.3-1.1 2.4-2.4 2.4zm7.3-42.3c-1.4 0-2.4-1.1-2.4-2.4s1.1-2.4 2.4-2.4c1.4 0 2.4 1.1 2.4 2.4s-1 2.4-2.4 2.4zm52.4-13.7v110.8h6.2l13.8-23.1v-87.8h-20zm6.8 13.7c-1.4 0-2.4-1.1-2.4-2.4s1.1-2.4 2.4-2.4c1.4 0 2.4 1.1 2.4 2.4s-1 2.4-2.4 2.4zm7.1 42.3c-1.4 0-2.4-1.1-2.4-2.4 0-1.4 1.1-2.4 2.4-2.4s2.4 1.1 2.4 2.4c.1 1.3-1 2.4-2.4 2.4z" class="st2"/><path d="M67.6 106.4v-1.7h1.5V89.2h-1.5v-1.7h5.8c2.1 0 4.2 1.7 4.2 4.8 0 1.6-.6 2.9-2 3.7 2.1.9 2.9 2.6 2.9 4.8 0 3.9-2.2 5.7-4.8 5.7h-6.1zm5.1-11.1c2 0 2.9-1 2.9-3 0-2.3-1.2-3.1-3.5-3.1H71v6.1h1.7zm.9 9.4c1.7 0 2.9-1.2 2.9-4S75.1 97 73.1 97H71v7.8h2.6zm12.3-17.2h9.2v1.7h-7.3v6.2h6v1.7h-6v7.6h7.3v1.7h-9.2V87.5zm17.4 0h5.1c1.9 0 4.2 1.6 4.2 5 0 2.3-.9 4.5-3.3 5.3l3.9 8.1-1.7.8-4.3-8.8h-2.1v8.4h-1.9V87.5zm1.9 8.8h2.8c1.6 0 2.7-1.2 2.7-3.8 0-2.5-1.2-3.3-3.1-3.3h-2.3v7.1zm24.4 8.7c-1.2 1-2.8 1.6-4.4 1.6-4.9 0-5.7-5.9-5.7-9.7 0-3.5.8-9.8 5.5-9.8 2.1 0 3.7 1.3 4.7 3l-1.7 1c-.7-1.2-1.7-2.3-3.2-2.3-3.2 0-3.4 5.8-3.4 8 0 6.5 1.9 7.8 3.8 7.8.8 0 1.8-.3 2.5-.9V98h-3.5v-1.7h5.5v8.7zm15-13.2c-.3-1.4-1-2.8-2.6-2.8-1.8 0-2.5 1.4-2.5 3 0 1.5.3 2 3.3 3.8 2.3 1.4 3.9 2.6 3.9 5.5 0 3-1.6 5.3-4.8 5.3-3.3 0-4.6-2.2-4.9-5.2l1.9-.3c.3 2.1.7 3.7 3 3.7 1.6 0 2.8-1.1 2.8-3.4 0-2.5-1.6-3.3-3.6-4.5-2.2-1.3-3.6-2.2-3.6-5 0-2.6 1.7-4.8 4.4-4.8s4 1.9 4.5 4.3l-1.8.4zm13.7-2.6h-4.1v-1.7h10v1.7h-4v17.2h-1.9V89.2zm14.1-1.7h9.2v1.7h-7.3v6.2h6v1.7h-6v7.6h7.3v1.7h-9.2V87.5zm16.3 1.7v-1.7h5c3.8 0 6 1.7 6 9.5 0 4.2-.2 9.5-6 9.5h-5.1v-1.7h1.5V89.2h-1.4zm3.4 15.5h1.6c2.3 0 4.1-.6 4.1-7.8s-1.9-7.8-3.6-7.8h-2v15.6zm18.1-15.5h-4.1v-1.7h10v1.7h-4v17.2h-1.9V89.2zM100.8 54v3.5h4.1V54h1.1v8.4h-1.1v-3.9h-4.1v3.9h-1.1V54h1.1zm11.5 5.7-.9 2.6h-1.1l2.9-8.4h1.3l2.9 8.4h-1.2l-.9-2.6h-3zm2.8-.8-.8-2.4c-.2-.5-.3-1-.4-1.5-.1.5-.3 1-.4 1.5l-.8 2.4h2.4zm6.7 3.5V54h1.2l2.7 4.3c.6 1 1.1 1.9 1.5 2.7-.1-1.1-.1-2.1-.1-3.5V54h1v8.4H127l-2.7-4.3c-.6-.9-1.1-1.9-1.6-2.8.1 1.1.1 2.1.1 3.5v3.6h-1zm11.3-8.3c.7-.1 1.4-.2 2.3-.2 1.6 0 2.7.4 3.4 1 .7.7 1.2 1.7 1.2 3 0 1.4-.4 2.5-1.2 3.3-.8.8-2.1 1.2-3.7 1.2-.8 0-1.4 0-2-.1v-8.2zm1.1 7.4c.3.1.7.1 1.1.1 2.3 0 3.6-1.3 3.6-3.6 0-2-1.1-3.2-3.4-3.2-.6 0-1 0-1.3.1v6.6zm17.4-2.8c-.1-1.2-.1-2.6-.1-3.6-.3 1-.6 2-1.1 3.2l-1.5 4.1h-.8l-1.4-4c-.4-1.2-.7-2.3-1-3.3 0 1-.1 2.5-.2 3.7l-.2 3.6h-1l.6-8.4h1.4l1.4 4.1c.3 1 .6 2 .8 2.8.2-.8.5-1.8.9-2.8L151 54h1.4l.5 8.4h-1.1l-.2-3.7zm7.3 1-.9 2.6h-1.1l2.9-8.4h1.3l2.9 8.4h-1.2l-.9-2.6h-3zm2.8-.8-.8-2.4c-.2-.5-.3-1-.4-1.5-.1.5-.3 1-.4 1.5l-.8 2.4h2.4zm6.6-4.8c.7-.1 1.4-.2 2.3-.2 1.6 0 2.7.4 3.4 1 .7.7 1.2 1.7 1.2 3 0 1.4-.4 2.5-1.2 3.3-.8.8-2.1 1.2-3.7 1.2-.8 0-1.4 0-2-.1v-8.2zm1.1 7.4c.3.1.7.1 1.1.1 2.3 0 3.6-1.3 3.6-3.6 0-2-1.1-3.2-3.4-3.2-.6 0-1 0-1.3.1v6.6zm14.7-3.1h-3.3v3h3.6v.9h-4.7V54h4.5v.9h-3.5v2.7h3.3v.8zm-47.2 12.8c.3-.1.8-.1 1.4-.1.7 0 1.2.1 1.6.4.3.2.5.6.5 1 0 .6-.4 1-1 1.3.5.1 1.2.6 1.2 1.4 0 .5-.2.9-.5 1.1-.4.4-1 .5-2 .5-.5 0-.9 0-1.1-.1v-5.5zm.8 2.3h.7c.8 0 1.2-.4 1.2-1 0-.7-.5-.9-1.3-.9-.3 0-.5 0-.7.1v1.8zm0 2.8h.6c.8 0 1.5-.3 1.5-1.1s-.7-1.1-1.5-1.1h-.6v2.2zm7.1.6v-2.4l-1.8-3.3h.8l.8 1.6.6 1.2c.2-.4.4-.7.6-1.2l.8-1.6h.8l-1.9 3.3v2.4h-.7z" class="st1"/></g></svg>