<svg xmlns="http://www.w3.org/2000/svg" xml:space="preserve" id="Layer_1" x="0" y="0" style="enable-background:new 0 0 283.5 283.5" version="1.1" viewBox="0 0 283.5 283.5"><style>.st0{fill:#fff}.st1{fill:#c39d6f}</style><g id="Artwork"><path d="M106.5 178.5h76.2v4.8h-76.2zm-34.4 0h18.5v4.8H72.1zm120.9 0h24.2v4.8H193z" class="st0"/><path d="M223.9 175.4v10.8c5.8 0 24.7 1.4 27.6 0 3-1.4 3.1-9.7 0-10.8-2.9-1.3-23.3 0-27.6 0z" class="st1"/><path d="M186.2 125.2h25.4v4.8h-25.4zm-75.3 0H173v4.8h-62.1zm-44.2 0h32.1v4.8H66.7z" class="st0"/><path d="M90.6 121.7h19.5V191H90.6zm82.2-1h21.1v71.2h-21.1z" class="st0"/><path d="M59.8 122.3v10.8c-5.8 0-24.7 1.4-27.6 0-3-1.4-3.1-9.7 0-10.8 3-1.3 23.3 0 27.6 0zm28-8.8V224l17.3 29h7.8V113.5H87.8zm7.9 70.5c-1.7 0-3-1.4-3-3 0-1.7 1.4-3 3-3 1.7 0 3 1.4 3 3s-1.3 3-3 3zm9.2-53.3c-1.7 0-3-1.4-3-3s1.4-3 3-3c1.7 0 3 1.4 3 3 0 1.7-1.2 3-3 3zm65.9-17.2v139.4h7.8l17.3-29V113.4l-25.1.1zm8.6 17.2c-1.7 0-3-1.4-3-3s1.4-3 3-3c1.7 0 3 1.4 3 3 0 1.7-1.3 3-3 3zm8.9 53.3c-1.7 0-3-1.4-3-3 0-1.7 1.4-3 3-3s3 1.4 3 3c.1 1.6-1.2 3-3 3z" class="st1"/><path d="M48.4 97.2V95h1.9V75.6h-1.9v-2.2h7.3c2.6 0 5.3 2.2 5.3 6.1 0 2-.8 3.6-2.5 4.7 2.6 1.1 3.6 3.3 3.6 6.1 0 4.9-2.8 7.2-6.1 7.2h-7.6v-.3zm6.4-14c2.5 0 3.6-1.3 3.6-3.8 0-2.9-1.5-3.9-4.4-3.9h-1.3v7.7h2.1zM56 95c2.2 0 3.6-1.5 3.6-5s-1.7-4.7-4.2-4.7h-2.6v9.8L56 95zm15.5-21.6h11.6v2.2h-9.2v7.8h7.5v2.2h-7.5V95h9.2v2.2H71.5V73.4zm21.9 0h6.4c2.4 0 5.3 2 5.3 6.3 0 2.9-1.1 5.6-4.2 6.7l4.9 10.2-2.2 1-5.4-11.1h-2.6v10.6h-2.4l.2-23.7zm2.3 11.1h3.6c2 0 3.4-1.5 3.4-4.8 0-3.1-1.5-4.2-3.9-4.2h-2.9v8.9h-.2zm30.8 10.9c-1.5 1.3-3.6 2-5.5 2-6.2 0-7.2-7.5-7.2-12.2 0-4.4 1-12.3 6.9-12.3 2.6 0 4.7 1.6 5.9 3.8l-2.2 1.3c-.9-1.5-2.2-2.9-4-2.9-4 0-4.2 7.3-4.2 10 0 8.1 2.4 9.8 4.8 9.8 1 0 2.3-.3 3.1-1.1v-7.2h-4.4v-2.2h6.9l-.1 11c.1 0 0 0 0 0zm18.8-16.6c-.3-1.7-1.3-3.6-3.3-3.6-2.3 0-3.1 1.7-3.1 3.8 0 1.9.3 2.5 4.2 4.8 2.9 1.7 4.9 3.3 4.9 6.9 0 3.8-2 6.7-6.1 6.7-4.2 0-5.8-2.8-6.2-6.6l2.4-.3c.3 2.6.9 4.7 3.8 4.7 2 0 3.6-1.4 3.6-4.2 0-3.1-2-4.2-4.5-5.6-2.8-1.6-4.5-2.8-4.5-6.3 0-3.3 2.2-6.1 5.5-6.1s5 2.4 5.6 5.4l-2.3.4zm17.2-3.2h-5.2v-2.2h12.6v2.2h-5v21.7h-2.4V75.6zm17.8-2.2h11.6v2.2h-9.2v7.8h7.5v2.2h-7.5V95h9.2v2.2h-11.6V73.4zm20.5 2.2v-2.2h6.3c4.8 0 7.5 2.2 7.5 12 0 5.3-.3 12-7.5 12h-6.4v-2.2h1.9V75.6h-1.8zm4.3 19.4h2c2.9 0 5.2-.8 5.2-9.8 0-9.1-2.4-9.8-4.5-9.8h-2.5v19.7l-.2-.1zm22.7-19.4h-5.2v-2.2h12.6v2.2h-5v21.7h-2.4V75.6zM90.2 31.3v4.4h5.2v-4.4h1.4v10.6h-1.4V37h-5.2v4.9h-1.4V31.3h1.4zm14.4 7.1-1.1 3.3h-1.4l3.6-10.6h1.6l3.6 10.6h-1.5l-1.1-3.3h-3.7zm3.6-1-1-3c-.3-.6-.3-1.3-.5-1.9-.1.6-.3 1.3-.5 1.9l-1 3h3zm8.4 4.5V31.3h1.5l3.4 5.4c.8 1.3 1.4 2.4 1.9 3.4-.1-1.4-.1-2.6-.1-4.4v-4.4h1.3v10.6h-1.4l-3.4-5.4c-.8-1.1-1.4-2.4-2-3.6.1 1.4.1 2.6.1 4.4v4.5l-1.3.1zm14.2-10.5c.9-.1 1.7-.3 2.9-.3 2 0 3.4.5 4.2 1.3.9.9 1.5 2.2 1.5 3.8 0 1.7-.5 3.1-1.5 4.2-1 1-2.6 1.5-4.7 1.5-1 0-1.7 0-2.5-.1l.1-10.4zm1.4 9.3c.3.1.9.1 1.4.1 2.9 0 4.5-1.6 4.5-4.5 0-2.5-1.4-4-4.2-4-.8 0-1.3 0-1.6.1l-.1 8.3zm21.9-3.5c-.1-1.5-.1-3.3-.1-4.5-.3 1.3-.8 2.5-1.4 4l-1.9 5.2h-1l-1.7-5c-.5-1.5-.9-2.9-1.3-4.2 0 1.3-.1 3.1-.3 4.7l-.3 4.5h-1.3l.8-10.6h1.7l1.7 5.2c.3 1.3.8 2.5 1 3.6.3-1 .6-2.3 1.1-3.6l2-5.2h1.7l.6 10.6H154l.1-4.7zm9.2 1.2-1.1 3.3h-1.4l3.6-10.6h1.6l3.6 10.6h-1.5l-1.1-3.3h-3.7zm3.5-1-1-3c-.3-.6-.3-1.3-.5-1.9-.1.6-.3 1.3-.5 1.9l-1 3h3zm8.4-6c.9-.1 1.7-.3 2.9-.3 2 0 3.4.5 4.2 1.3.9.9 1.5 2.2 1.5 3.8 0 1.7-.5 3.1-1.5 4.2-1 1-2.6 1.5-4.7 1.5-1 0-1.7 0-2.5-.1l.1-10.4zm1.3 9.3c.3.1.9.1 1.4.1 2.9 0 4.5-1.6 4.5-4.5 0-2.5-1.4-4-4.2-4-.8 0-1.3 0-1.6.1l-.1 8.3zm18.5-4h-4.2v3.8h4.5v1.1h-5.9V31.3h5.6v1.1h-4.4v3.4h4.2v1l.2-.1zm-59.3 16.2c.3-.1 1-.1 1.7-.1.9 0 1.5.1 2 .5.3.3.6.8.6 1.3 0 .8-.5 1.3-1.3 1.6.6.1 1.5.8 1.5 1.7 0 .6-.3 1.1-.6 1.4-.5.5-1.3.6-2.5.6-.6 0-1.1 0-1.4-.1v-6.9zm.9 2.9h.9c1 0 1.5-.5 1.5-1.3 0-.9-.6-1.1-1.6-1.1-.3 0-.6 0-.9.1v2.3h.1zm0 3.5h.8c1 0 1.9-.3 1.9-1.4 0-1-.9-1.4-1.9-1.4h-.8v2.8zm8.9.7v-3l-2.3-4.2h1l1 2c.3.5.5 1 .8 1.5.3-.5.5-.9.8-1.5l1-2h1l-2.4 4.2v3h-.9z" class="st0"/></g></svg>