<svg xmlns="http://www.w3.org/2000/svg" xml:space="preserve" style="enable-background:new 0 0 100 100" viewBox="0 0 100 100"><path d="M96.4 43.1c-2.5-3.1-12.1-18-14.2-21.2-2.5-4.3-5.2-5.4-10.3-5.4H28.1c-5.1 0-7.8 1-10.3 5.4C15.7 25.1 6.1 40 3.6 43.1.7 47 0 50 0 54.2v23.3c0 3.3 2.7 6 6 6h88c3.3 0 6-2.7 6-6V54.2c0-4.2-.7-7.2-3.6-11.1zm-7.8 8.6H66.1c-1.4 0-2 1-2.4 2.2-.4 1.2-1 3.6-1.3 4.7-.4 1.1-1.2 2.5-2.6 2.5H40.3c-1.4 0-2.3-1.4-2.6-2.5-.4-1.1-1-3.5-1.3-4.7-.4-1.2-1-2.2-2.4-2.2H11.5c-2.6.1-3.3-2-1.8-4 1-1.4 12.6-19.3 13.8-21.3 1.2-2 3.1-2.5 4.9-2.5h43.5c1.8 0 3.7.4 4.9 2.5 1.2 2 12.8 19.9 13.8 21.3 1.3 2 .7 4.1-2 4z" style="fill:current"/></svg>
