<svg xmlns="http://www.w3.org/2000/svg" xml:space="preserve" style="enable-background:new 0 0 100 100" viewBox="0 0 100 100"><path d="M50 0C22.4 0 0 22.4 0 50s22.4 50 50 50 50-22.4 50-50S77.6 0 50 0zm31.6 35.9c-2.3 3.4-7.1 10.3-11.3 16.2-4.2 5.9-7.8 11.2-21 29.9-.9 1.3-2.2 2.6-3.6 3.3-2.4 1.3-5.3.5-7-1.9-6.8-9.6-13.7-19.2-20.3-29.1-3.7-5.6.7-13.1 7.4-13.2 3.3.1 5.8 1.6 7.7 4.4 2.8 4 5.6 8.1 8.4 12.1 2 2.8 3.2 2.9 5.4.2 12.5-15.4 9.1-11.2 21.6-26.6.7-.9 1.6-2.1 2.3-2.9 2.2-2.3 5.7-3.4 8-1.6 2.3 1.8 4.1 6.6 2.4 9.2z" style="fill:#27a518"/></svg>