<svg xmlns="http://www.w3.org/2000/svg" xml:space="preserve" style="enable-background:new 0 0 100 100" viewBox="0 0 100 100"><path d="M50 0C22.4 0 0 22.4 0 50s22.4 50 50 50 50-22.4 50-50S77.6 0 50 0zm.8 86.7c-4.5 0-7.9-3.3-7.9-7.8s3.4-8 7.8-8c4.5 0 8 3.6 8 8s-3.4 7.8-7.9 7.8zm8-61.8c-.5 7.8-1.2 15.4-1.8 23.2-.3 3.2-.5 6.3-.9 9.6-.1.9-.4 2-.8 2.9-.8 2.2-2.2 3.4-4.5 3.4-2.4 0-3.8-1.1-4.6-3.3-1.3-3.6-1.3-7.4-1.6-11.2-.5-7.9-1.7-22.4-1.7-23.9s0-4 .4-5.9c.9-4.5 5-7.1 9.4-6.3 2.2.4 3.8 1.7 4.7 3.8 1 2.5 1.6 5.1 1.4 7.7z" style="fill:#df260d"/></svg>