<svg xmlns="http://www.w3.org/2000/svg" xml:space="preserve" style="enable-background:new 0 0 100 100" viewBox="0 0 100 100"><path d="M96.4 26.3c-1.4.1-2.7 0-4.1 0-21.2 0-42.5-.1-63.7.2-4.4.1-6.5-1.4-7.5-5.5-.8-3.2-1.8-6.3-3.2-9.2-.7-1.5-2.4-3.3-3.9-3.5-3.6-.5-7.3-.4-11 0-1 0-3 0-3 2.5s1.9 2.4 3 2.7c2.2.5 4.6.3 6.9.2s3.5.9 4.2 3c6.2 18.7 12.6 37.4 18.7 56.2.5 1.5 0 3.7-.8 5.1-2 3.6-2.3 7.5-.1 10.3 2.3 2.9 5.2 4.3 9 3.4 4-1 6.4-3.7 6.5-8.3.1-3.1 1.6-3.6 4.1-3.5 4.8.1 9.5.1 14.3 0 2.7-.1 4.1.5 4.3 3.7.4 6.6 6.8 10.2 12.3 7.5 3.3-1.6 5.5-5.8 4.8-9.1-.8-4.1-4.2-7.1-8.7-7.2-10.9-.1-21.8-.1-32.7-.1h-4.1c-3.6 0-3.6-3-3.9-5.3-.4-2.9 2.2-2.2 3.8-2.2 6.9-.1 13.9 0 20.8 0 7.1 0 14.2.2 21.2-.1 1.6-.1 4.1-1.4 4.6-2.8 4-11.1 7.6-22.4 11.3-33.7 1.1-2.9.2-4.5-3.1-4.3z"/></svg>