<?xml version="1.0" standalone="no"?>
<!DOCTYPE svg PUBLIC "-//W3C//DTD SVG 20010904//EN"
 "http://www.w3.org/TR/2001/REC-SVG-20010904/DTD/svg10.dtd">
<svg version="1.0" xmlns="http://www.w3.org/2000/svg"
 width="700.000000pt" height="700.000000pt" viewBox="0 0 700.000000 700.000000"
 preserveAspectRatio="xMidYMid meet">
<metadata>
Created by potrace 1.14, written by Peter Selinger 2001-2017
</metadata>
<g transform="translate(0.000000,700.000000) scale(0.100000,-0.100000)"
fill="#000000" stroke="none">
<path d="M1255 6986 c-554 -77 -1003 -450 -1180 -980 -75 -224 -70 -32 -70
-2506 0 -2474 -5 -2282 70 -2506 182 -544 650 -921 1220 -984 71 -8 732 -10
2270 -7 2417 3 2220 -2 2442 72 437 146 772 481 918 918 75 225 70 33 70 2507
0 2474 5 2282 -70 2506 -147 439 -480 773 -919 919 -222 75 -20 69 -2466 71
-1711 2 -2215 -1 -2285 -10z m1505 -1856 l0 -150 740 0 740 0 0 150 0 150 320
0 320 0 0 -150 0 -150 200 0 200 0 0 -60 0 -60 -200 0 -200 0 0 -620 0 -620
270 0 270 0 0 -60 0 -60 -270 0 -270 0 0 -517 0 -518 -218 -365 -218 -365
-102 -3 -102 -3 0 886 0 885 -740 0 -740 0 0 -885 0 -885 -98 0 -98 0 -217
364 -217 364 0 521 0 521 -205 0 -205 0 0 60 0 60 203 2 202 3 0 615 0 615
-272 3 -273 2 0 60 0 60 275 0 275 0 0 150 0 150 315 0 315 0 0 -150z m-1377
-76 l27 -6 0 -132 0 -133 -182 -6 c-221 -8 -475 -7 -507 2 -39 11 -64 54 -69
120 -5 64 10 122 35 143 9 7 39 16 67 19 55 8 583 1 629 -7z m4891 -1352 c52
-9 76 -43 83 -119 4 -47 1 -69 -15 -106 -32 -72 -56 -75 -524 -60 l-218 6 0
138 0 138 148 4 c304 6 488 6 526 -1z"/>
<path d="M2760 4240 l0 -620 740 0 740 0 0 620 0 620 -740 0 -740 0 0 -620z"/>
</g>
</svg>
